<svg width="28" height="24" viewBox="0 0 28 24" fill="none" xmlns="http://www.w3.org/2000/svg">
<path d="M4.12034 14.1482C4.1134 14.1421 4.1066 14.1361 4.09993 14.1302V14.0272L3.83633 13.7636C2.39562 12.3229 1.5666 10.4149 1.5666 8.4V8.14737C1.69221 4.24257 5.02111 1.03333 8.93327 1.03333C9.55069 1.03333 10.3378 1.24515 11.1066 1.65909C11.8429 2.0556 12.4985 2.60339 12.9352 3.22713C13.4084 4.27379 14.9117 4.25737 15.3526 3.17788C15.7207 2.52332 16.3604 1.95126 17.105 1.53603C17.8731 1.10766 18.6561 0.9 19.1999 0.9C23.2272 0.9 26.4407 4.09104 26.5666 8.14692V8.4C26.5666 10.563 25.7282 12.4504 24.3251 13.7366L24.0333 14.0041V14.0985C24.0192 14.1104 24.0048 14.1225 23.9901 14.1349C23.7821 14.3102 23.4998 14.5534 23.1635 14.8459C22.4901 15.4314 21.588 16.225 20.6049 17.0915C20.2898 17.3692 19.9664 17.6543 19.6394 17.9427C17.9256 19.454 16.1133 21.0522 14.8851 22.113C14.4205 22.4957 13.7126 22.4957 13.248 22.1129C11.7831 20.8477 9.45557 18.8195 7.47552 17.089C6.48416 16.2226 5.58051 15.4314 4.91656 14.8486C4.5845 14.5571 4.31286 14.3182 4.12034 14.1482Z" stroke="#6B7280" stroke-width="1.8"/>
</svg>
